#!OML:ASF E:/inclinewalkrobotboard/Project1/Captureday1/Session1/subject1.ASF
:FULLY-SPECIFIED
:DEGREES
263
root 0 0 0 9.941322202847228 23.68553565321152 -10.91969204763537
lowerback 10.630519742464028 2.874688994372175 1.0492032961894018
upperback 1.6560316566793527 3.703135115594089 -1.6971457933554324
thorax -4.180941903621791 1.9102425614829295 -2.6698683452523646
lowerneck -8.680514324601617 -5.0014750953331335 -7.387276227528904
upperneck 2.4810574281353848 -5.815859000858889 5.342831126166458
head 3.2019934059176673 -2.7274314583435255 2.6452974684741077
rclavicle -1.1362124230501283E-14 4.714573384169532E-16
rhumerus 10.299444791051602 -13.180256397770092 -63.51863842959079
rradius 19.604441859132592
rwrist 55.85125654162999
rhand -7.848430171319963 21.05151542051177
rfingers 7.12501999999993
rthumb 18.05182868906196 -8.674376719948295
lclavicle -8.87606714930717E-15 4.979023676975649E-15
lhumerus -23.726720330160017 7.789514933337248 75.36671129782879
lradius 32.22505551368005
lwrist -37.79779809407157
lhand -8.555798218934296 14.41387077570818
lfingers 7.054075332372807
lthumb 17.094234994386177 51.33451227388022
rfemur 4.224593303517722 8.421979247740177 36.93179954429168
rtibia 24.109379669780175
rfoot -21.49124245164972 -6.050056078904563
rtoes 8.109417021883525
lfemur -39.21879802030508 1.135667877413362 -10.209107469140484
ltibia 47.85881994514283
lfoot -6.7324385444694705 2.5605693163347096
ltoes 1.3406291346513983
264
root 0 0 0 10.23190740644032 24.04986730046991 -11.006875221562312
lowerback 10.584532344095662 2.846781565585281 1.0023262191998445
upperback 1.6073862014901104 3.6644162628179413 -1.705987039511895
thorax -4.204082972177426 1.8911739694346779 -2.650964934673424
lowerneck -8.79278546957536 -5.033211210854201 -7.454937754365078
upperneck 2.4975053999934893 -5.844174893952411 5.3930382319703805
head 3.22858637860101 -2.742624597432682 2.672681875865349
rclavicle -1.1274440958400677E-14 5.649241506993603E-16
rhumerus 11.159989915638262 -13.627981061185045 -62.81717997724692
rradius 20.036233310577465
rwrist 55.49039198754578
rhand -8.058911456972197 20.99318050885079
rfingers 7.125019999999933
rthumb 17.847589403464944 -8.74234338969351
lclavicle -7.662638514075617E-15 5.287745059548846E-15
lhumerus -21.99618413742322 8.889709497888852 74.10178494345038
lradius 33.245246777197465
lwrist -37.48605814971738
lhand -8.904236168678025 14.293748039472014
lfingers 7.052501130846719
lthumb 16.749878464964702 54.20657806445411
rfemur 6.180702937721247 8.64592949321235 37.04060924203378
rtibia 23.665241585540283
rfoot -22.035205731083035 -5.917468636573634
rtoes 6.254963629813696
lfemur -42.16118274205997 -1.127651839189241 -9.975874811394464
ltibia 31.740531669530668
lfoot -10.147329897762553 8.147444912397898
ltoes 5.179890968029655
265
root 0 0 0 10.5703555038903 24.581794940613182 -11.089760426339957
lowerback 10.517402294603576 2.8095719764877973 0.9440340905786857
upperback 1.547963960691807 3.6136119271250293 -1.7166356115281944
thorax -4.226759964265441 1.866188490781131 -2.626295686439213
lowerneck -8.927533976455216 -5.067692813911416 -7.5264341707904245
upperneck 2.5760142154131493 -5.876814714597449 5.436871139052724
head 3.2787290651880303 -2.759666278048848 2.6983013724180456
rclavicle -1.1284537012209815E-14 7.017182592128943E-16
rhumerus 11.796471201212832 -14.11431057877928 -62.19008635374943
rradius 20.595154972723833
rwrist 55.10458283619951
rhand -8.249161444962693 21.01715832977783
rfingers 7.125019999999934
rthumb 17.662457762327026 -8.726742363504687
lclavicle -6.4463937663247195E-15 5.674973235483773E-15
lhumerus -19.99599164847248 10.0006601212439 72.68085954353928
lradius 34.40378773851657
lwrist -37.004064761085075
lhand -9.374119910610272 14.242519162218425
lfingers 7.052336295956764
lthumb 16.295352442419794 57.85158073249996
rfemur 9.407507053921098 8.96171995601975 37.141965958739995
rtibia 23.140405109593665
rfoot -22.387728217213315 -5.542335519601874
rtoes 3.247739114866513
lfemur -40.56487654359654 -3.2438243504881763 -10.468166605284374
ltibia 20.079284230369645
lfoot -10.730827488386575 10.81362969511058
ltoes 8.365214691636512
266
root 0 0 0 10.708856751197551 25.06099496694392 -11.203863568991775
lowerback 10.418160113957798 2.7809103735455825 0.8543724314656007
upperback 1.482563426712417 3.572071789036695 -1.732607135971338
thorax -4.23897049758896 1.8459689369617909 -2.5888508083485626
lowerneck -9.063021477699804 -5.109947552058506 -7.595241159764978
upperneck 2.6881217327665965 -5.930678075141345 5.470992618050632
head 3.3437009457180586 -2.7858511355727207 2.715444977964276
rclavicle -1.1469661292863508E-14 7.639718447619182E-16
rhumerus 11.90954317890295 -14.459523176412548 -61.911235522279995
rradius 21.01133742191402
rwrist 54.87097254943494
rhand -8.321017611086157 21.120862409460177
rfingers 7.125019999999935
rthumb 17.591967373141784 -8.626580947029716
lclavicle -5.999566357370065E-15 5.909319570606811E-15
lhumerus -18.39717521080083 10.70503988430102 71.59141019322736
lradius 35.317320701826816
lwrist -36.527657861534664
lhand -9.811014099481875 14.259268541727891
lfingers 7.054317060202571
lthumb 15.883597736687765 61.447238533356376
rfemur 12.434955124558805 9.135540312972601 37.18899640024606
rtibia 22.8052172976841
rfoot -21.81365295725112 -4.903214423120618
rtoes 0.2439446904280187
lfemur -37.963039151858816 -4.080587578331416 -11.253202205867588
ltibia 16.084984643811307
lfoot -10.56582674840622 11.307371692342791
ltoes 10.02000460828365
267
root 0 0 0 10.63457447299863 25.258480135414697 -11.320773840219381
lowerback 10.306763605063816 2.7689545690547375 0.7543203061967882
upperback 1.4236964428130143 3.5511596441229267 -1.7514008920631308
thorax -4.238960666954917 1.8359116426196866 -2.549161786490584
lowerneck -9.176151569477554 -5.149771911937383 -7.64794847122932
upperneck 2.7761287787012936 -5.9908602234547175 5.498973278300992
head 3.3987477003781237 -2.813862654940209 2.7249634803930163
rclavicle -1.1619172171714993E-14 7.545811099667205E-16
rhumerus 11.609875437338328 -14.563269623342771 -61.961220895604846
rradius 21.16287635904436
rwrist 54.8099053525236
rhand -8.29541039681784 21.213023420574604
rfingers 7.125019999999934
rthumb 17.61649738465179 -8.53350816031892
lclavicle -5.884672652794943E-15 5.990780492071147E-15
lhumerus -17.469363143125907 10.936867347293205 71.02341812743107
lradius 35.90031757847808
lwrist -36.254872888736884
lhand -10.12062435567666 14.30151800512547
lfingers 7.055928613127492
lthumb 15.592371086009091 64.31144797511949
rfemur 14.006156497467003 9.054797810314433 37.180157840561854
rtibia 22.92935847020236
rfoot -20.34080521396882 -4.185433790843662
rtoes -1.4489450144495741
lfemur -35.93385737854945 -4.258935777421691 -12.031222524709403
ltibia 15.668103874910198
lfoot -10.233519649751752 10.973453856565992
ltoes 11.006479466316033
268
root 0 0 0 10.513357427936116 25.26226729299555 -11.400886361630922
lowerback 10.218578060927221 2.765781113078921 0.6737865702007007
upperback 1.3819760283922913 3.5423911506845136 -1.7665569380133879
thorax -4.234540408619619 1.831679555200731 -2.5177109476197255
lowerneck -9.259233176632154 -5.179507349397226 -7.679904270438572
upperneck 2.8380358650414106 -6.0392179201642175 5.520633514491502
head 3.4383179873014527 -2.83581634940502 2.73013405612732
rclavicle -1.1693533474858496E-14 7.251744663776956E-16
rhumerus 11.09635647553427 -14.499063724582198 -62.20263977066709
rradius 21.154617207198186
rwrist 54.851470479091816
rhand -8.225428962911106 21.28166759709012
rfingers 7.125019999999933
rthumb 17.68435917149738 -8.46136745444057
lclavicle -5.909431413491046E-15 6.0542769322821186E-15
lhumerus -17.0634876287342 10.793701646833195 70.88636293081974
lradius 36.25093175539616
lwrist -36.18223471600179
lhand -10.330495349035278 14.337820461147118
lfingers 7.056311790007239
lthumb 15.392033132909926 66.53277324894819
rfemur 14.563249454983179 8.848463470605097 37.1069559166204
rtibia 23.492389094668873
rfoot -18.63797661927765 -3.552718981290628
rtoes -2.037159323713113
lfemur -34.398749499504845 -4.198309107205273 -12.843531388873094
ltibia 16.370784342010904
lfoot -9.899234911654668 10.327780449476105
ltoes 11.714039265579107
269
root 0 0 0 10.419039192449302 25.205512002122948 -11.444372779261252
lowerback 10.161723352839022 2.7654618358061027 0.6155690066255555
upperback 1.3564045158836902 3.538305430754541 -1.7768675958142466
thorax -4.2307414173216085 1.829645442140157 -2.494512179257952
lowerneck -9.318225256115294 -5.199872648108954 -7.697002388359872
upperneck 2.888967639356098 -6.073408293161981 5.53465406402095
head 3.4679355028482144 -2.8511174666614254 2.7324257246061583
rclavicle -1.1704354189728257E-14 6.817221038344347E-16
rhumerus 10.498650406731759 -14.36904895741686 -62.542331339797926
rradius 21.072473289421538
rwrist 54.95490425173158
rhand -8.141517609550535 21.342619002633604
rfingers 7.125019999999931
rthumb 17.76596304453316 -8.395726166719196
lclavicle -5.996677953386122E-15 6.122774955361847E-15
lhumerus -17.04648055898933 10.421440137023655 71.05205393588895
lradius 36.464833170446944
lwrist -36.24214446551062
lhand -10.458197032070052 14.357757122067234
lfingers 7.05579575681673
lthumb 15.267486798981901 68.2619494962304
rfemur 14.531452254546693 8.595876286193139 36.962620789142754
rtibia 24.327290814695978
rfoot -17.017501266515904 -3.057621440676738
rtoes -1.9987636126706771
lfemur -33.02524544352209 -4.020958026844775 -13.776914951579972
ltibia 17.49183873787709
lfoot -9.634255503464958 9.482703325269632
ltoes 12.247433218230878
